name rise38.3101peak57.3503fall81.6963.mot
datacolumns 19
datarows 26
range 3.00665600000000 3.04832400000000
endheader
time	ground_force1_vx	ground_force1_vy	ground_force1_vz	ground_force1_px	ground_force1_py	ground_force1_pz	ground_force2_vx	ground_force2_vy	ground_force2_vz	ground_force2_px	ground_force2_py	ground_force2_pz	ground_torque1_x	ground_torque1_y	ground_torque1_z	ground_torque2_x	ground_torque2_y	ground_torque2_z	
3.00665600000000	-11.14417700000000	41.76728400000000	-13.40606600000000	0.35364500000000	0.00000000000000	0.08657900000000	-64.78330000000000	791.43915800000002	-54.20660400000000	0.13179500000000	0.00000000000000	-0.08070200000000	0.00000000000000	-9.46488100000000	0.00000000000000	0.00000000000000	-24.82585400000000	0.00000000000000	
3.00833000000000	-12.25603100000000	48.79083100000000	-15.01883200000000	0.35624500000000	0.00000000000000	0.08811300000000	-65.22947900000000	787.79672100000005	-53.53876300000000	0.13116800000000	0.00000000000000	-0.08056100000000	0.00000000000000	-10.65766200000000	0.00000000000000	0.00000000000000	-24.65732800000000	0.00000000000000	
3.00999600000000	-13.16886700000000	55.86630600000000	-16.46575500000000	0.35867400000000	0.00000000000000	0.08952700000000	-65.68297900000000	784.04979200000002	-52.84752700000000	0.13053600000000	0.00000000000000	-0.08041500000000	0.00000000000000	-11.74698100000000	0.00000000000000	0.00000000000000	-24.48731000000000	0.00000000000000	
3.01166100000000	-13.85350400000000	62.90199900000000	-17.71201600000000	0.36095700000000	0.00000000000000	0.09083800000000	-66.14366300000000	780.19850699999995	-52.13329300000000	0.12990000000000	0.00000000000000	-0.08026400000000	0.00000000000000	-12.70806200000000	0.00000000000000	0.00000000000000	-24.31592600000000	0.00000000000000	
3.01332600000000	-14.29293600000000	69.83056300000000	-18.73525500000000	0.36311400000000	0.00000000000000	0.09205800000000	-66.61130900000001	776.24286600000005	-51.39649700000000	0.12926100000000	0.00000000000000	-0.08010900000000	0.00000000000000	-13.52465400000000	0.00000000000000	0.00000000000000	-24.14328900000000	0.00000000000000	
3.01499700000000	-14.48213700000000	76.61094300000001	-19.52565100000000	0.36516300000000	0.00000000000000	0.09319800000000	-67.08560500000000	772.18273199999999	-50.63760900000000	0.12861800000000	0.00000000000000	-0.07994900000000	0.00000000000000	-14.18915200000000	0.00000000000000	0.00000000000000	-23.96950000000000	0.00000000000000	
3.01665900000000	-14.42692100000000	83.22781900000000	-20.08495300000000	0.36711800000000	0.00000000000000	0.09426700000000	-67.56614600000000	768.01782500000002	-49.85714300000000	0.12797100000000	0.00000000000000	-0.07978400000000	0.00000000000000	-14.70200000000000	0.00000000000000	0.00000000000000	-23.79464900000000	0.00000000000000	
3.01832700000000	-14.14209900000000	89.68901200000001	-20.42472800000000	0.36899100000000	0.00000000000000	0.09527200000000	-68.05243200000000	763.74772499999995	-49.05564600000000	0.12732100000000	0.00000000000000	-0.07961500000000	0.00000000000000	-15.07052300000000	0.00000000000000	0.00000000000000	-23.61881300000000	0.00000000000000	
3.01999200000000	-13.64922300000000	96.02142400000000	-20.56411300000000	0.37079400000000	0.00000000000000	0.09622000000000	-68.54386900000000	759.37186699999995	-48.23370700000000	0.12666800000000	0.00000000000000	-0.07944100000000	0.00000000000000	-15.30740400000000	0.00000000000000	0.00000000000000	-23.44205400000000	0.00000000000000	
3.02165800000000	-12.97415100000000	102.26610700000001	-20.52732200000000	0.37253400000000	0.00000000000000	0.09711600000000	-69.03976600000000	754.88954000000001	-47.39195400000000	0.12601200000000	0.00000000000000	-0.07926200000000	0.00000000000000	-15.42897200000000	0.00000000000000	0.00000000000000	-23.26442400000000	0.00000000000000	
3.02332300000000	-12.14468400000000	108.47301600000000	-20.34118500000000	0.37422000000000	0.00000000000000	0.09796400000000	-69.53933499999999	750.29989699999999	-46.53105300000000	0.12535400000000	0.00000000000000	-0.07907900000000	0.00000000000000	-15.45349200000000	0.00000000000000	0.00000000000000	-23.08595900000000	0.00000000000000	
3.02499300000000	-11.18845400000000	114.69592000000000	-20.03288200000000	0.37585700000000	0.00000000000000	0.09877000000000	-70.04169000000000	745.60194700000000	-45.65170800000000	0.12469400000000	0.00000000000000	-0.07889100000000	0.00000000000000	-15.39958900000000	0.00000000000000	0.00000000000000	-22.90668200000000	0.00000000000000	
3.02665600000000	-10.13116800000000	120.98786699999999	-19.62805000000000	0.37745100000000	0.00000000000000	0.09953600000000	-70.54585100000000	740.79457100000002	-44.75466300000000	0.12403300000000	0.00000000000000	-0.07869800000000	0.00000000000000	-15.28490300000000	0.00000000000000	0.00000000000000	-22.72660000000000	0.00000000000000	
3.02832700000000	-8.99531000000000	127.39744600000000	-19.14932200000000	0.37900700000000	0.00000000000000	0.10026500000000	-71.05073899999999	735.87651800000003	-43.84070000000000	0.12337100000000	0.00000000000000	-0.07850000000000	0.00000000000000	-15.12505400000000	0.00000000000000	0.00000000000000	-22.54570700000000	0.00000000000000	
3.02999100000000	-7.79930900000000	133.96600900000001	-18.61535200000000	0.38052800000000	0.00000000000000	0.10095900000000	-71.55518100000000	730.84642299999996	-42.91063700000000	0.12271000000000	0.00000000000000	-0.07829800000000	0.00000000000000	-14.93293500000000	0.00000000000000	0.00000000000000	-22.36398300000000	0.00000000000000	
3.03165900000000	-6.55714700000000	140.72587700000000	-18.04031000000000	0.38201700000000	0.00000000000000	0.10162300000000	-72.05791100000000	725.70280900000000	-41.96532900000000	0.12204900000000	0.00000000000000	-0.07809200000000	0.00000000000000	-14.71832500000000	0.00000000000000	0.00000000000000	-22.18139300000000	0.00000000000000	
3.03332500000000	-5.27837800000000	147.69951599999999	-17.43379700000000	0.38347700000000	0.00000000000000	0.10225600000000	-72.55757500000000	720.44410100000005	-41.00566900000000	0.12139000000000	0.00000000000000	-0.07788000000000	0.00000000000000	-14.48781000000000	0.00000000000000	0.00000000000000	-21.99788500000000	0.00000000000000	
3.03499700000000	-3.96846600000000	154.89953499999999	-16.80112100000000	0.38491100000000	0.00000000000000	0.10286200000000	-73.05272700000000	715.06864199999995	-40.03258100000000	0.12073300000000	0.00000000000000	-0.07766400000000	0.00000000000000	-14.24494500000000	0.00000000000000	0.00000000000000	-21.81339700000000	0.00000000000000	
3.03666200000000	-2.62936100000000	162.32939099999999	-16.14383400000000	0.38631900000000	0.00000000000000	0.10344100000000	-73.54183999999999	709.57470100000000	-39.04702300000000	0.12008000000000	0.00000000000000	-0.07744400000000	0.00000000000000	-13.99061800000000	0.00000000000000	0.00000000000000	-21.62784800000000	0.00000000000000	
3.03832900000000	-1.26023600000000	169.98458600000001	-15.46045800000000	0.38770400000000	0.00000000000000	0.10399600000000	-74.02330499999999	703.96049800000003	-38.04998500000000	0.11943100000000	0.00000000000000	-0.07721900000000	0.00000000000000	-13.72354300000000	0.00000000000000	0.00000000000000	-21.44114600000000	0.00000000000000	
3.03999200000000	0.14171600000000	177.85420099999999	-14.74729500000000	0.38906600000000	0.00000000000000	0.10452700000000	-74.49543799999999	698.22421299999996	-37.04248700000000	0.11878700000000	0.00000000000000	-0.07698900000000	0.00000000000000	-13.44081500000000	0.00000000000000	0.00000000000000	-21.25318400000000	0.00000000000000	
3.04165800000000	1.58047200000000	185.92257100000000	-13.99925600000000	0.39040600000000	0.00000000000000	0.10503600000000	-74.95648000000000	692.36401200000000	-36.02557600000000	0.11814900000000	0.00000000000000	-0.07675500000000	0.00000000000000	-13.13849800000000	0.00000000000000	0.00000000000000	-21.06384100000000	0.00000000000000	
3.04333000000000	3.06045100000000	194.17096699999999	-13.21064200000000	0.39172500000000	0.00000000000000	0.10552300000000	-75.40460899999999	686.37806200000000	-35.00032400000000	0.11751900000000	0.00000000000000	-0.07651600000000	0.00000000000000	-12.81216800000000	0.00000000000000	0.00000000000000	-20.87298500000000	0.00000000000000	
3.04499700000000	4.58587000000000	202.57914400000001	-12.37582600000000	0.39302200000000	0.00000000000000	0.10599100000000	-75.83794100000000	680.26455399999998	-33.96782800000000	0.11689800000000	0.00000000000000	-0.07627300000000	0.00000000000000	-12.45740100000000	0.00000000000000	0.00000000000000	-20.68046900000000	0.00000000000000	
3.04666400000000	6.16024800000000	211.12668400000001	-11.48980100000000	0.39429900000000	0.00000000000000	0.10643900000000	-76.25453700000000	674.02171899999996	-32.92920600000000	0.11628500000000	0.00000000000000	-0.07602500000000	0.00000000000000	-12.07017200000000	0.00000000000000	0.00000000000000	-20.48613800000000	0.00000000000000	
3.04832400000000	7.78604300000000	219.79406299999999	-10.54859300000000	0.39555400000000	0.00000000000000	0.10686800000000	-76.65240700000000	667.64785400000005	-31.88559400000000	0.11568300000000	0.00000000000000	-0.07577300000000	0.00000000000000	-11.64714900000000	0.00000000000000	0.00000000000000	-20.28982200000000	0.00000000000000	
